<?xml version="1.0" encoding="utf-8"?>
<!-- Generator: Adobe Illustrator 23.1.1, SVG Export Plug-In . SVG Version: 6.00 Build 0)  -->
<svg version="1.1" id="Ebene_1" xmlns="http://www.w3.org/2000/svg" xmlns:xlink="http://www.w3.org/1999/xlink" x="0px" y="0px"
	 viewBox="0 0 566.93 566.93" style="enable-background:new 0 0 566.93 566.93;" xml:space="preserve">
<style type="text/css">
	.st0{fill:#090909;}
	.st1{fill:#F58326;}
	.st2{fill:#0C0C0C;}
	.st3{fill:#453535;}
	.st4{fill:#102423;}
	.st5{fill:#0D0D0D;}
	.st6{fill:#FCE4D0;}
</style>
<g>
	<path class="st0" d="M155.27,281.13c0-30.82,0.02-61.65-0.05-92.47c0-2.1,0.36-2.76,2.66-2.76c49.4,0.08,98.81,0.08,148.21,0.01
		c2.13,0,2.55,0.56,2.53,2.59c-0.1,13.33-0.1,26.66,0,39.99c0.02,2.02-0.59,2.42-2.49,2.42c-31.91-0.06-63.82-0.02-95.73-0.09
		c-2.21,0-2.93,0.45-2.87,2.8c0.17,7.83,0.18,15.66-0.01,23.49c-0.06,2.39,0.79,2.62,2.81,2.62c28.66-0.06,57.32-0.01,85.98-0.1
		c2.32-0.01,2.84,0.63,2.82,2.87c-0.11,12.08-0.13,24.16,0.01,36.24c0.03,2.3-0.67,2.67-2.77,2.66c-28.74-0.07-57.49-0.02-86.23-0.1
		c-2.06-0.01-2.64,0.45-2.6,2.57c0.14,8.41,0.12,16.83,0.01,25.24c-0.03,1.98,0.52,2.45,2.47,2.44c32.41-0.06,64.82-0.02,97.22-0.1
		c2.33-0.01,2.82,0.64,2.8,2.86c-0.11,13.24-0.08,26.49-0.01,39.74c0.01,1.82-0.28,2.5-2.36,2.5c-49.99-0.07-99.97-0.07-149.96,0
		c-2.26,0-2.48-0.79-2.47-2.7C155.29,342.94,155.27,312.03,155.27,281.13z"/>
	<path class="st1" d="M121.6,342.34c-1.22-3.41-2.44-6.83-3.77-10.55c1.65,0.21,1.73,1.38,2.14,2.12
		c5.62,10.21,11.1,20.52,18.35,29.72c4.13,5.24,8.38,10.36,13.88,14.28c0.96,0.68,1.86,1.14,2.91,0.39c1.43-1.01,2.34-0.31,3.4,0.7
		c12.71,12.23,27.35,21.48,43.8,27.76c20.35,7.77,41.38,10.33,63.05,7.83c21.6-2.5,41.38-9.87,59.29-22.09
		c17.7-12.08,31.76-27.55,41.95-46.46c2.1-3.89,4.15-7.8,5.74-11.91c0.71-1.83,1.63-2.53,3.66-2.47c5.07,0.15,5.43,0.01,4.97-5.03
		c-0.43-4.69,1.27-6.91,5.52-9.01c14.25-7.06,22.27-23.6,19.71-39.28c-2.27-13.9-10.01-23.65-22.76-29.45
		c-1.69-0.77-2.41-1.82-2.38-3.63c0.06-3.16-0.03-6.33,0.04-9.5c0.03-1.32-0.27-2.22-1.76-1.88c-4.93,1.12-6.67-1.65-8.51-5.75
		c-10.87-24.29-27.72-43.56-50.2-57.8c-16.77-10.62-35.06-17.08-54.81-19.45c-13.76-1.65-27.41-1.15-41,1.43
		c-0.48,0.09-1.25,0.29-1.44,0.06c-2.35-2.81-5.18-1.1-7.63-0.62c-17.53,3.46-33.25,11.01-47.63,21.51
		c-5.86,4.28-11.37,8.97-16.6,14c-0.49,0.47-0.97,1.71-1.96,0.73c-0.83-0.81,0.26-1.29,0.56-1.87c0.51-0.98,1.54-1.66,1.94-3.34
		c-2.35,1.51-3.88,3.19-5.44,4.83c-11.54,12.07-20.04,26.1-26.7,41.32c-2.25,5.15-2.25,5.15-8.16,4.81
		c1.88-5.47,3.99-10.77,6.57-15.86c15.38-30.29,38.26-53,68.88-67.76c14.98-7.22,30.81-11.58,47.36-13.23
		c30.53-3.05,59.4,2.5,86.22,17.47c30.64,17.11,52.52,42.07,65.57,74.69c0.64,1.6,1.49,2.55,3.1,3.22
		c23.1,9.61,37.16,32.35,34.48,57.21c-2.38,22.02-14.29,37.51-34.71,46.28c-1.91,0.82-3.28,1.67-4.18,3.78
		c-12.76,30.03-33.22,53.41-61.35,69.91c-19.77,11.59-41.15,18.25-64.11,19.52c-45.1,2.48-83.56-12.46-115.23-44.54
		c-14.22-14.4-24.75-31.3-31.75-50.33c-0.25-0.69-1.39-1.82,0.01-2.23c1.11-0.33,2.66-0.75,3.44,0.99c1.51,3.42,3,6.86,5.01,10.04
		c0.2,0.09,0.4,0.45,0.56,0.29C121.84,342.98,121.72,342.62,121.6,342.34z"/>
	<path class="st2" d="M434.38,283.93c0.06-9.54,7.79-17.25,17.32-17.28c9.62-0.03,17.43,7.79,17.41,17.44
		c-0.01,9.69-7.75,17.39-17.45,17.36C442,301.42,434.32,293.64,434.38,283.93z"/>
	<path class="st3" d="M399.98,284.41c-0.05,17.19-13.52,31.89-30.55,33.5c-2.44,0.23-3.09-0.38-2.98-2.83
		c0.21-4.79,0.06-4.8,4.65-5.61c11.55-2.05,20.65-12.86,20.83-24.74c0.19-12.44-8.59-23.33-20.79-25.78
		c-1.51-0.3-3.65-0.1-4.37-1.02c-0.78-0.99-0.25-3.02-0.25-4.6c-0.01-3.14,0-3.14,3.1-2.83
		C386.8,252.21,400.03,266.98,399.98,284.41z"/>
	<path class="st4" d="M384.43,284.29c0.08,8.85-7.01,16.9-15.89,17.98c-0.7,0.08-2.19,0.82-1.95-0.83c0.19-1.35-1.42-3.48,1.26-4.02
		c5.7-1.16,9.67-4.27,11.17-10.03c1.95-7.48-2.84-14.79-10.61-16.4c-0.65-0.13-1.72,0.33-1.83-0.76c-0.12-1.31-0.13-2.67,0.1-3.95
		c0.12-0.65,1.02-0.29,1.54-0.23C377.42,267.13,384.34,274.94,384.43,284.29z"/>
	<path class="st3" d="M359.4,284.14c0-3.68,2.93-6.65,6.62-6.7c3.69-0.05,6.88,3.09,6.89,6.78c0,3.54-3.12,6.65-6.71,6.7
		C362.41,290.98,359.4,287.97,359.4,284.14z"/>
	<path class="st2" d="M347.35,278.91c3.38,0.16,6.02,3.05,5.89,6.44c-0.14,3.48-3.16,6.25-6.59,6.03c-3.4-0.22-5.97-3.06-5.86-6.48
		C340.9,281.37,343.78,278.74,347.35,278.91z"/>
	<path class="st5" d="M317.49,284.72c-0.05-3.15,2.43-5.74,5.58-5.82c3.27-0.08,5.92,2.49,5.91,5.74c-0.01,3.12-2.6,5.72-5.71,5.74
		C320.17,290.41,317.54,287.84,317.49,284.72z"/>
	<path class="st6" d="M121.6,342.34c0.3,0.61,0.6,1.21,1.03,2.09c-1.19-0.21-1.31-0.93-1.55-1.53
		C121.25,342.71,121.42,342.52,121.6,342.34z"/>
</g>
</svg>
